<svg width="11" height="11" viewBox="0 0 11 11" fill="none" xmlns="http://www.w3.org/2000/svg">
<g clip-path="url(#clip0_198_889)">
<path d="M0.392822 9.82139V1.17854C0.392822 0.970152 0.475603 0.770303 0.622953 0.622953C0.770303 0.475603 0.970152 0.392822 1.17854 0.392822H9.82139C10.0298 0.392822 10.2296 0.475603 10.377 0.622953C10.5243 0.770303 10.6071 0.970152 10.6071 1.17854V9.82139C10.6071 10.0298 10.5243 10.2296 10.377 10.377C10.2296 10.5243 10.0298 10.6071 9.82139 10.6071H7.46425V6.88282H8.02211C8.14922 6.88282 8.27113 6.83233 8.36101 6.74244C8.4509 6.65256 8.50139 6.53065 8.50139 6.40354V5.79854C8.50139 5.67142 8.4509 5.54951 8.36101 5.45963C8.27113 5.36975 8.14922 5.31925 8.02211 5.31925H7.49568V4.58068C7.49568 3.92068 7.79425 3.92068 8.09282 3.92068H8.47782C8.54106 3.92328 8.60409 3.91197 8.66248 3.88753C8.72086 3.86309 8.77316 3.82613 8.81568 3.77925C8.86134 3.73578 8.89749 3.68331 8.92183 3.62516C8.94617 3.567 8.95819 3.50443 8.95711 3.44139V2.85997C8.9592 2.79598 8.94867 2.73222 8.92611 2.67231C8.90355 2.6124 8.8694 2.55753 8.82562 2.51083C8.78183 2.46413 8.72927 2.42651 8.67095 2.40014C8.61262 2.37376 8.54966 2.35914 8.48568 2.35711H7.58211C7.31846 2.3472 7.0558 2.39463 6.81228 2.49615C6.56875 2.59766 6.35017 2.75082 6.17162 2.94506C5.99306 3.1393 5.85881 3.36998 5.77812 3.62117C5.69742 3.87237 5.67222 4.13808 5.70425 4.39996V5.31925H5.20139C5.13779 5.31821 5.07462 5.32983 5.01557 5.35345C4.95651 5.37707 4.90274 5.41221 4.8574 5.45682C4.81206 5.50143 4.77605 5.55462 4.75147 5.61329C4.72689 5.67196 4.71424 5.73493 4.71425 5.79854V6.40354C4.71424 6.46714 4.72689 6.53012 4.75147 6.58878C4.77605 6.64745 4.81206 6.70064 4.8574 6.74525C4.90274 6.78986 4.95651 6.825 5.01557 6.84862C5.07462 6.87224 5.13779 6.88387 5.20139 6.88282H5.70425V10.6071H1.17854C0.970152 10.6071 0.770303 10.5243 0.622953 10.377C0.475603 10.2296 0.392822 10.0298 0.392822 9.82139Z" stroke="white" stroke-linecap="round" stroke-linejoin="round"/>
</g>
<defs>
<clipPath id="clip0_198_889">
<rect width="11" height="11" fill="white"/>
</clipPath>
</defs>
</svg>
