<svg width="11" height="11" viewBox="0 0 11 11" fill="none" xmlns="http://www.w3.org/2000/svg">
<g clip-path="url(#clip0_198_891)">
<path d="M6.28569 3.14295C6.28569 2.35723 6.67855 2.35723 7.0714 2.35723H7.54283C7.62154 2.35829 7.69967 2.34357 7.77259 2.31393C7.84552 2.2843 7.91177 2.24035 7.96743 2.18469C8.02309 2.12903 8.06704 2.06278 8.09667 1.98985C8.12631 1.91693 8.14103 1.8388 8.13997 1.76009V1.02152C8.13998 0.942435 8.12428 0.864138 8.09378 0.791173C8.06328 0.718207 8.01859 0.652026 7.96231 0.596473C7.90602 0.540919 7.83926 0.497099 7.7659 0.467556C7.69255 0.438013 7.61405 0.423335 7.53497 0.424376L6.41926 0.408662C6.09439 0.396096 5.77066 0.454173 5.47042 0.578884C5.17018 0.703594 4.90057 0.891969 4.68021 1.13101C4.45985 1.37004 4.29398 1.65405 4.19405 1.96342C4.09412 2.2728 4.06251 2.60017 4.1014 2.92295V4.06223H3.48069C3.32232 4.06223 3.17043 4.12515 3.05844 4.23713C2.94646 4.34912 2.88354 4.501 2.88354 4.65938V5.39795C2.88354 5.55632 2.94646 5.70821 3.05844 5.82019C3.17043 5.93218 3.32232 5.99509 3.48069 5.99509H4.1014V10.2144C4.1014 10.3186 4.14279 10.4185 4.21647 10.4922C4.29014 10.5658 4.39007 10.6072 4.49426 10.6072H5.9164C6.01646 10.6012 6.11043 10.5572 6.17908 10.4842C6.24773 10.4111 6.28587 10.3146 6.28569 10.2144V5.99509H6.97712C7.13549 5.99509 7.28737 5.93218 7.39936 5.82019C7.51135 5.70821 7.57426 5.55632 7.57426 5.39795V4.65938C7.57426 4.501 7.51135 4.34912 7.39936 4.23713C7.28737 4.12515 7.13549 4.06223 6.97712 4.06223H6.28569V3.14295Z" stroke="white" stroke-linecap="round" stroke-linejoin="round"/>
</g>
<defs>
<clipPath id="clip0_198_891">
<rect width="11" height="11" fill="white"/>
</clipPath>
</defs>
</svg>
