<svg width="11" height="11" viewBox="0 0 11 11" fill="none" xmlns="http://www.w3.org/2000/svg">
<path d="M8.92578 4.58081H6.96935C6.91606 4.5808 6.8633 4.59142 6.81416 4.61204C6.76503 4.63267 6.7205 4.66289 6.68318 4.70094C6.64587 4.73898 6.61652 4.78409 6.59685 4.83362C6.57718 4.88315 6.56759 4.9361 6.56863 4.98938V6.09724C6.56863 6.20351 6.61085 6.30544 6.686 6.38058C6.76115 6.45573 6.86307 6.49795 6.96935 6.49795H7.98292C7.9886 6.80164 7.93019 7.10312 7.81149 7.38272C7.69279 7.66231 7.51648 7.91374 7.29406 8.12059C7.07163 8.32745 6.80809 8.48508 6.52064 8.58321C6.23318 8.68134 5.92826 8.71776 5.62578 8.69009C3.86578 8.69009 3.0172 7.19724 3.0172 5.50009C3.0172 3.80295 3.92863 2.31009 5.62578 2.31009C6.37503 2.28523 7.10921 2.5244 7.70006 2.98581C7.74729 3.01671 7.80073 3.03686 7.8566 3.04482C7.91248 3.05278 7.96942 3.04836 8.0234 3.03186C8.07738 3.01537 8.12707 2.98721 8.16895 2.94938C8.21084 2.91155 8.24389 2.86497 8.26578 2.81295L8.76078 1.68152C8.80149 1.59813 8.81199 1.50319 8.7905 1.41291C8.769 1.32264 8.71684 1.24262 8.64292 1.18652C7.74192 0.647754 6.70669 0.375327 5.6572 0.400807C2.7972 0.39295 0.848633 2.61652 0.848633 5.50009C0.848633 8.38366 2.80506 10.6072 5.62578 10.6072C8.44649 10.6072 10.1515 8.59581 10.1515 5.89295C10.1515 5.02866 9.80578 4.58081 8.92578 4.58081Z" stroke="white" stroke-linecap="round" stroke-linejoin="round"/>
</svg>
