<svg width="185" height="20" viewBox="0 0 185 20" fill="none" xmlns="http://www.w3.org/2000/svg">
<g clip-path="url(#clip0_198_1207)">
<path d="M184.435 1.71824V19.1892L172.423 6.66457V18.1682H169.92V0.606445L181.955 13.1538V1.71824H184.435Z" fill="#048EA7"/>
<path d="M156.679 1.37793C156.679 1.37793 154.245 1.40062 152.288 2.55779C152.288 2.55779 150.332 3.69227 149.194 5.64357C149.194 5.64357 148.034 7.57219 148.011 9.99997C148.011 9.99997 148.034 12.4051 149.172 14.311C149.172 14.311 150.332 16.2169 152.266 17.3287C152.266 17.3287 154.222 18.4632 156.679 18.4859C156.679 18.4859 159.068 18.4632 161.002 17.306C161.002 17.306 162.936 16.1715 164.073 14.2429C164.073 14.2429 165.233 12.3143 165.256 9.9319C165.256 9.9319 165.233 7.5495 164.073 5.62088C164.073 5.62088 162.936 3.69227 161.002 2.55779C161.002 2.55779 159.068 1.40062 156.679 1.37793ZM156.656 3.71496C156.656 3.71496 158.408 3.73765 159.773 4.55447C159.773 4.55447 161.138 5.3713 161.935 6.75536C161.935 6.75536 162.754 8.16212 162.754 9.95459C162.754 9.95459 162.731 11.679 161.935 13.0858C161.935 13.0858 161.116 14.4698 159.728 15.2866C159.728 15.2866 158.363 16.1262 156.656 16.1262C156.656 16.1262 154.927 16.1035 153.54 15.3093C153.54 15.3093 152.152 14.4925 151.333 13.1084C151.333 13.1084 150.537 11.7017 150.514 9.95459C150.514 9.95459 150.537 8.18481 151.333 6.77805C151.333 6.77805 152.129 5.3713 153.517 4.55447C153.517 4.55447 154.905 3.73765 156.656 3.71496Z" fill="#048EA7"/>
<path d="M141.96 4.03258V18.1682H139.457V4.03258H135.68V1.69556H145.759V4.03258H141.96Z" fill="#048EA7"/>
<path d="M133.337 4.03258H129.538V18.1682H127.035V4.03258H123.259V1.69556H133.337V4.03258Z" fill="#048EA7"/>
<path d="M118.982 1.69556V18.1682H116.479V1.69556H118.982Z" fill="#048EA7"/>
<path d="M110.655 1.69556V12.2916C110.655 12.2916 110.632 14.0841 109.859 15.4681C109.859 15.4681 109.062 16.8522 107.697 17.669C107.697 17.669 106.332 18.4632 104.581 18.4859C104.581 18.4859 102.806 18.4632 101.418 17.669C101.418 17.669 100.053 16.8522 99.257 15.4681C99.257 15.4681 98.4834 14.0841 98.4607 12.2916V1.69556H100.963V11.6109C100.963 11.6109 100.963 12.6773 101.077 13.3126C101.077 13.3126 101.191 13.9479 101.487 14.4471C101.487 14.4471 101.942 15.2412 102.761 15.6723C102.761 15.6723 103.58 16.1261 104.581 16.1261C104.581 16.1261 105.559 16.1261 106.378 15.6723C106.378 15.6723 107.174 15.2412 107.652 14.4471C107.652 14.4471 107.948 13.9479 108.061 13.3126L108.152 11.6109V1.69556H110.655Z" fill="#048EA7"/>
<path d="M79.9189 1.69556H82.649L87.1991 13.1084L91.8175 1.69556H94.5476L87.1536 19.3934L79.9189 1.69556Z" fill="#048EA7"/>
<path d="M65.4042 4.0553C65.4042 4.0553 64.8582 3.71496 64.0164 3.71496C64.0164 3.71496 62.9699 3.73765 62.3102 4.30489C62.3102 4.30489 61.6504 4.87213 61.6276 5.75702C61.6276 5.75702 61.6049 6.59654 62.4012 7.14109L62.8107 7.41336L63.4477 7.70833L65.063 8.36632C65.063 8.36632 67.0423 9.18315 67.975 10.3403C67.975 10.3403 68.9306 11.5202 68.9078 13.1538C68.9078 13.1538 68.9078 14.6967 68.2253 15.8993C68.2253 15.8993 67.5655 17.0791 66.3825 17.7825C66.3825 17.7825 65.1995 18.4632 63.6979 18.4859C63.6979 18.4859 61.4684 18.4632 60.0806 17.2153C60.0806 17.2153 58.6928 15.9446 58.3516 13.6303L60.8769 13.0404L61.0589 14.1522C61.0589 14.1522 61.1726 14.5606 61.3546 14.8555C61.3546 14.8555 61.6731 15.4455 62.3102 15.7858C62.3102 15.7858 62.9472 16.1262 63.7207 16.1262C63.7207 16.1262 64.9037 16.1035 65.6545 15.3547C65.6545 15.3547 66.4053 14.606 66.428 13.4034C66.428 13.4034 66.4053 11.9967 65.2905 11.2252C65.2905 11.2252 64.699 10.8395 64.062 10.5899L62.4922 9.90922C62.4922 9.90922 59.0796 8.50246 59.1023 5.75702C59.1023 5.75702 59.1023 4.4864 59.7621 3.51075C59.7621 3.51075 60.3991 2.5351 61.5139 1.96786C61.5139 1.96786 62.6287 1.40062 64.0392 1.37793C64.0392 1.37793 65.518 1.37793 66.5873 2.03593C66.5873 2.03593 67.6793 2.69393 68.4983 4.14606L66.4963 5.34861C66.4963 5.34861 65.9502 4.41833 65.4042 4.0553Z" fill="#048EA7"/>
<path d="M53.369 1.69556V18.1682H50.8665V1.69556H53.369Z" fill="#048EA7"/>
<path d="M42.5399 1.69556H45.0424V12.2916C45.0424 12.2916 45.0197 14.0841 44.2462 15.4681C44.2462 15.4681 43.4499 16.8522 42.0849 17.669C42.0849 17.669 40.7198 18.4632 38.968 18.4859C38.968 18.4859 37.1935 18.4632 35.8057 17.669C35.8057 17.669 34.4407 16.8522 33.6444 15.4681C33.6444 15.4681 32.8709 14.0841 32.8481 12.2916V1.69556H35.3507V11.6109C35.3507 11.6109 35.3507 12.6773 35.4645 13.3126C35.4645 13.3126 35.5782 13.9479 35.874 14.4471C35.874 14.4471 36.329 15.2412 37.148 15.6723C37.148 15.6723 37.967 16.1261 38.968 16.1261C38.968 16.1261 39.9463 16.1261 40.7653 15.6723C40.7653 15.6723 41.5616 15.2412 42.0394 14.4471C42.0394 14.4471 42.3351 13.9479 42.4489 13.3126L42.5399 11.6109V1.69556Z" fill="#048EA7"/>
<path d="M19.2888 1.37793C19.2888 1.37793 16.8545 1.40062 14.8979 2.55779C14.8979 2.55779 12.9414 3.69227 11.8039 5.64357C11.8039 5.64357 10.6436 7.57219 10.6208 9.99997C10.6208 9.99997 10.6436 12.4051 11.7811 14.311C11.7811 14.311 12.9414 16.2169 14.8752 17.3287C14.8752 17.3287 16.8317 18.4632 19.2888 18.4859C19.2888 18.4859 21.6776 18.4632 23.6114 17.306C23.6114 17.306 25.5452 16.1715 26.6827 14.2429C26.6827 14.2429 27.843 12.3143 27.8657 9.9319C27.8657 9.9319 27.843 7.5495 26.6827 5.62088C26.6827 5.62088 25.5452 3.69227 23.6114 2.55779C23.6114 2.55779 21.6776 1.40062 19.2888 1.37793ZM19.266 3.71496C19.266 3.71496 21.0178 3.73765 22.3829 4.55447C22.3829 4.55447 23.7479 5.3713 24.5442 6.75536C24.5442 6.75536 25.3404 8.16212 25.3632 9.95459C25.3632 9.95459 25.3404 11.679 24.5442 13.0858C24.5442 13.0858 23.7251 14.4698 22.3374 15.2866C22.3374 15.2866 20.9723 16.1262 19.266 16.1262C19.266 16.1262 17.537 16.1035 16.1492 15.3093C16.1492 15.3093 14.7614 14.4925 13.9424 13.1084C13.9424 13.1084 13.1462 11.7017 13.1234 9.95459C13.1234 9.95459 13.1462 8.18481 13.9424 6.77805C13.9424 6.77805 14.7387 5.3713 16.1265 4.55447C16.1265 4.55447 17.5143 3.73765 19.266 3.71496Z" fill="#048EA7"/>
<path d="M3.06774 1.69556V15.8085H7.91361V18.1682H0.565186V1.69556H3.06774Z" fill="#048EA7"/>
</g>
<defs>
<clipPath id="clip0_198_1207">
<rect width="185" height="20" fill="white"/>
</clipPath>
</defs>
</svg>
