<svg width="24" height="25" viewBox="0 0 24 25" fill="none" xmlns="http://www.w3.org/2000/svg">
<path d="M6.2581 9.38406L11.9701 19.4771L17.5881 9.64706C16.2581 9.54206 14.8761 9.19406 13.3461 8.65506C12.9511 8.51506 12.7481 8.48406 12.5661 8.50706C12.4121 8.52706 10.8431 9.07606 9.9231 9.30906C8.7621 9.60306 7.5391 9.62606 6.2581 9.38406ZM4.8481 6.89406C6.5501 7.56406 8.0721 7.71406 9.4321 7.37006C10.1701 7.18306 11.9101 6.57406 12.3151 6.52306C12.8441 6.45606 13.3451 6.53306 14.0111 6.76806C15.7851 7.39406 17.3071 7.72406 18.7141 7.67706L19.6011 6.12506C17.2001 5.04825 14.5975 4.49433 11.9661 4.50006C9.35901 4.49455 6.78 5.03836 4.3971 6.09606L4.8481 6.89306V6.89406ZM2.5421 4.76806C5.45708 3.26988 8.68867 2.49216 11.9661 2.50006C15.3281 2.50006 18.5721 3.30006 21.4621 4.80606C21.5814 4.86826 21.687 4.95392 21.7725 5.05789C21.8579 5.16187 21.9215 5.28202 21.9594 5.41116C21.9973 5.5403 22.0088 5.67575 21.9931 5.80942C21.9774 5.94309 21.9349 6.07221 21.8681 6.18906L12.8341 21.9961C12.7464 22.1493 12.6197 22.2766 12.4668 22.3649C12.314 22.4533 12.1405 22.4997 11.9639 22.4993C11.7874 22.4988 11.6141 22.4517 11.4617 22.3626C11.3092 22.2735 11.1831 22.1457 11.0961 21.9921L2.1301 6.15006C2.06402 6.03298 2.02223 5.90377 2.00722 5.77017C1.99222 5.63657 2.00431 5.50131 2.04277 5.37249C2.08123 5.24366 2.14527 5.12392 2.23107 5.02041C2.31686 4.9169 2.42265 4.83175 2.5421 4.77006V4.76806ZM10.0001 12.5001C9.73488 12.5001 9.48053 12.3947 9.29299 12.2072C9.10546 12.0196 9.0001 11.7653 9.0001 11.5001C9.0001 11.2348 9.10546 10.9805 9.29299 10.793C9.48053 10.6054 9.73488 10.5001 10.0001 10.5001C10.2653 10.5001 10.5197 10.6054 10.7072 10.793C10.8947 10.9805 11.0001 11.2348 11.0001 11.5001C11.0001 11.7653 10.8947 12.0196 10.7072 12.2072C10.5197 12.3947 10.2653 12.5001 10.0001 12.5001ZM13.0001 15.5001C12.7349 15.5001 12.4805 15.3947 12.293 15.2072C12.1055 15.0196 12.0001 14.7653 12.0001 14.5001C12.0001 14.2348 12.1055 13.9805 12.293 13.793C12.4805 13.6054 12.7349 13.5001 13.0001 13.5001C13.2653 13.5001 13.5197 13.6054 13.7072 13.793C13.8947 13.9805 14.0001 14.2348 14.0001 14.5001C14.0001 14.7653 13.8947 15.0196 13.7072 15.2072C13.5197 15.3947 13.2653 15.5001 13.0001 15.5001Z" fill="white"/>
</svg>
