<svg width="20" height="21" viewBox="0 0 20 21" fill="none" xmlns="http://www.w3.org/2000/svg">
<path d="M10 20.5C4.477 20.5 0 16.023 0 10.5C0 4.977 4.477 0.5 10 0.5C15.523 0.5 20 4.977 20 10.5C20 16.023 15.523 20.5 10 20.5ZM10 18.5C12.1217 18.5 14.1566 17.6571 15.6569 16.1569C17.1571 14.6566 18 12.6217 18 10.5C18 8.37827 17.1571 6.34344 15.6569 4.84315C14.1566 3.34285 12.1217 2.5 10 2.5C7.87827 2.5 5.84344 3.34285 4.34315 4.84315C2.84285 6.34344 2 8.37827 2 10.5C2 12.6217 2.84285 14.6566 4.34315 16.1569C5.84344 17.6571 7.87827 18.5 10 18.5ZM6.08 13.894C6.02826 13.7732 6.00082 13.6434 5.99925 13.5119C5.99769 13.3805 6.02202 13.2501 6.07086 13.1281C6.11971 13.006 6.1921 12.8948 6.28392 12.8008C6.37574 12.7068 6.48518 12.6317 6.606 12.58C6.72682 12.5283 6.85664 12.5008 6.98806 12.4993C7.11948 12.4977 7.24992 12.522 7.37194 12.5709C7.49395 12.6197 7.60516 12.6921 7.69919 12.7839C7.79323 12.8757 7.86826 12.9852 7.92 13.106C8.09481 13.5127 8.385 13.8592 8.75469 14.1027C9.12437 14.3462 9.55733 14.476 10 14.476C10.4427 14.476 10.8756 14.3462 11.2453 14.1027C11.615 13.8592 11.9052 13.5127 12.08 13.106C12.1317 12.9852 12.2068 12.8757 12.3008 12.7839C12.3948 12.6921 12.506 12.6197 12.6281 12.5709C12.7501 12.522 12.8805 12.4977 13.0119 12.4993C13.1434 12.5008 13.2732 12.5283 13.394 12.58C13.5148 12.6317 13.6243 12.7068 13.7161 12.8008C13.8079 12.8948 13.8803 13.006 13.9291 13.1281C13.978 13.2501 14.0023 13.3805 14.0007 13.5119C13.9992 13.6434 13.9717 13.7732 13.92 13.894C13.5915 14.6615 13.0449 15.3156 12.3481 15.7753C11.6513 16.2351 10.8348 16.4801 10 16.4801C9.16518 16.4801 8.34873 16.2351 7.65189 15.7753C6.95506 15.3156 6.4085 14.6615 6.08 13.894ZM7 6.5C7.26522 6.5 7.51957 6.60536 7.70711 6.79289C7.89464 6.98043 8 7.23478 8 7.5V9.5C8 9.76522 7.89464 10.0196 7.70711 10.2071C7.51957 10.3946 7.26522 10.5 7 10.5C6.73478 10.5 6.48043 10.3946 6.29289 10.2071C6.10536 10.0196 6 9.76522 6 9.5V7.5C6 7.23478 6.10536 6.98043 6.29289 6.79289C6.48043 6.60536 6.73478 6.5 7 6.5ZM13 6.5C13.2652 6.5 13.5196 6.60536 13.7071 6.79289C13.8946 6.98043 14 7.23478 14 7.5V9.5C14 9.76522 13.8946 10.0196 13.7071 10.2071C13.5196 10.3946 13.2652 10.5 13 10.5C12.7348 10.5 12.4804 10.3946 12.2929 10.2071C12.1054 10.0196 12 9.76522 12 9.5V7.5C12 7.23478 12.1054 6.98043 12.2929 6.79289C12.4804 6.60536 12.7348 6.5 13 6.5Z" fill="white"/>
</svg>
