<svg width="11" height="11" viewBox="0 0 11 11" fill="none" xmlns="http://www.w3.org/2000/svg">
<g clip-path="url(#clip0_198_887)">
<path d="M3.14275 7.38575C2.5817 7.82643 1.93774 8.14975 1.24918 8.33646C1.17334 8.36399 1.10781 8.4142 1.06151 8.48027C1.0152 8.54634 0.990357 8.62507 0.990357 8.70575C0.990357 8.78643 1.0152 8.86516 1.06151 8.93123C1.10781 8.9973 1.17334 9.04751 1.24918 9.07504C6.68632 11.3065 10.1435 7.85718 9.61704 4.03075L10.497 2.20789H9.47561C8.20275 0.644321 4.82418 0.722892 5.38204 4.05432C5.38204 4.05432 3.5749 4.37646 1.2649 2.10575C1.21146 2.05299 1.14403 2.01666 1.07058 2.00104C0.99713 1.98543 0.920746 1.99119 0.850472 2.01765C0.780198 2.0441 0.718977 2.09015 0.674062 2.15032C0.629146 2.21049 0.602416 2.28228 0.597039 2.35718C0.352785 3.3612 0.47502 4.41944 0.941733 5.34135C1.40845 6.26325 2.18897 6.98823 3.14275 7.38575Z" stroke="white" stroke-linecap="round" stroke-linejoin="round"/>
</g>
<defs>
<clipPath id="clip0_198_887">
<rect width="11" height="11" fill="white"/>
</clipPath>
</defs>
</svg>
